<svg width="142" height="59" viewBox="0 0 142 59" fill="none" xmlns="http://www.w3.org/2000/svg">
<g clip-path="url(#clip0_42_15)">
<path fill-rule="evenodd" clip-rule="evenodd" d="M0.222351 0.347321H39.2575V44.3194H0.222351V0.347321Z" fill="#1B4E9B"/>
<path fill-rule="evenodd" clip-rule="evenodd" d="M26.8458 24.7105L15.5037 13.334L15.5365 8.10766C15.6074 7.64184 15.4006 7.01084 14.5248 7.12729L7.07648 7.22605L6.95821 14.7458C6.95155 15.238 7.18042 15.622 7.84551 15.6274L13.158 15.6679L29.6334 32.3003L32.8111 32.2988C32.7953 31.4569 32.1353 29.4159 30.6436 27.9761L31.9989 26.5828L31.5086 26.0867L31.1518 26.4386L30.7649 26.06L31.2826 25.5414L30.5215 24.7724L29.4463 25.8399L28.7553 25.1389L29.5507 24.3212L28.3911 23.1628L26.8458 24.7105Z" fill="#D4EDFC"/>
<path fill-rule="evenodd" clip-rule="evenodd" d="M10.3151 10.505C9.19336 11.6582 8.51086 12.6319 7.91541 13.76L10.083 14.1045C11.504 12.0856 12.2216 11.3745 14.0533 10.2131L13.6611 8.04944C12.3181 8.71815 11.2657 9.55333 10.3149 10.505H10.3151Z" fill="#1B4E9B"/>
<path fill-rule="evenodd" clip-rule="evenodd" d="M12.9371 24.6762L24.2792 13.2999L24.2467 8.07328C24.1755 7.60773 24.3821 6.97672 25.2579 7.0942L32.7065 7.19193L32.8263 14.7112C32.8314 15.2024 32.6036 15.5874 31.9372 15.5943L26.6252 15.6335L10.0971 32.2908L6.9718 32.2631C6.98767 31.4479 7.67222 29.3813 9.1391 27.942L7.78409 26.5471L8.27433 26.0508L8.63119 26.4058L9.01827 26.0256L8.50038 25.5072L9.26198 24.738L10.3367 25.8038L11.0279 25.1048L10.2325 24.2881L11.3924 23.1281L12.9371 24.6759V24.6762Z" fill="#D4EDFC"/>
<path fill-rule="evenodd" clip-rule="evenodd" d="M29.4248 10.5142C30.5463 11.6674 31.2286 12.6409 31.8225 13.7695L29.6552 14.115C28.2357 12.0948 27.5178 11.3835 25.6862 10.2225L26.0771 8.05994C27.4216 8.72762 28.4727 9.56281 29.425 10.5142H29.4248Z" fill="#1B4E9B"/>
<path fill-rule="evenodd" clip-rule="evenodd" d="M30.2051 22.3684C32.4978 22.7301 33.509 23.6455 34.5379 24.6446C35.5281 21.9487 35.5675 18.0775 34.5717 15.2224C33.0073 16.9099 31.3561 17.3044 30.1562 17.4837C25.55 17.7107 22.2419 14.5955 22.3287 9.94169C22.5013 7.86476 23.461 6.20747 24.6978 5.1322C21.5108 4.03794 18.1872 4.03307 14.9859 5.0632C16.2856 6.08204 17.3063 7.81576 17.4588 9.99709C17.5917 13.3406 16.0339 14.6611 15.4321 15.4781C12.7746 17.9865 9.98006 17.6538 8.41564 17.2688C6.68124 16.7373 5.52079 15.6061 4.97321 15.0046C3.96329 17.9775 3.95253 21.6522 4.98882 24.7175C5.7686 23.8238 7.37653 22.5046 9.84412 22.3371C16.6294 21.9885 20.0698 30.1718 15.046 34.7163C18.1695 35.7139 21.4092 35.8132 24.5395 34.624C21.529 31.9335 21.508 27.3313 24.3337 24.4102C25.7996 22.7383 28.3045 22.1958 30.2046 22.3686L30.2051 22.3684Z" fill="#FEFEFE"/>
<path fill-rule="evenodd" clip-rule="evenodd" d="M23.1799 19.9536L21.6524 20.4366L21.5139 20.7483L21.4153 20.9725L21.797 21.9185L20.7802 21.585L20.3393 21.7879L19.8046 23.1417L19.332 21.7915L18.8105 21.5876L17.8976 21.8564L18.2084 21.0002L17.9964 20.4787L16.4766 19.9536L17.9806 19.4457L18.201 18.9589L17.9081 18.0524L18.8366 18.3399L19.3079 18.1355L19.8112 16.6655L20.3232 18.1458L20.7802 18.302L21.7445 18.0432L21.4087 18.9617L21.6232 19.398L23.1799 19.9536Z" fill="#1B4E9B"/>
<path fill-rule="evenodd" clip-rule="evenodd" d="M141.937 44.5372C141.721 44.5687 141.566 44.5859 141.469 44.5859C141.194 44.5859 141 44.5254 140.887 44.4038C140.774 44.2822 140.717 44.0729 140.717 43.7772V41.3085H140.2V40.794H140.717V39.7439H141.345V40.794H141.937V41.3085H141.345V43.7772L141.444 43.9765L141.714 44.0506H141.937V44.5374L141.937 44.5372ZM136.567 44.5413V40.7937H136.864H137.164V41.3483L137.304 41.1608C137.575 40.8427 137.919 40.6816 138.328 40.6816C138.739 40.6816 139.058 40.7937 139.283 41.0166C139.506 41.2421 139.619 41.5589 139.619 41.9734V44.5413H139.304H138.99V42.1871C138.99 41.8577 138.926 41.6202 138.799 41.4748C138.672 41.3283 138.467 41.2544 138.181 41.2544C137.879 41.2544 137.637 41.3693 137.462 41.6004C137.284 41.8295 137.195 42.1412 137.195 42.5341L137.196 44.5413H136.881H136.566H136.567ZM135.14 42.38C135.123 42.0329 135.036 41.7623 134.883 41.5668C134.714 41.3534 134.465 41.2462 134.135 41.2462C133.805 41.2462 133.54 41.3691 133.342 41.6158C133.186 41.8113 133.092 42.0642 133.059 42.38H135.14ZM134.092 44.6429C133.564 44.6429 133.15 44.4738 132.848 44.1386C132.543 43.802 132.392 43.3375 132.392 42.7437C132.392 42.1132 132.552 41.6115 132.873 41.2393C133.193 40.8673 133.623 40.6811 134.162 40.6811C134.652 40.6811 135.047 40.8632 135.348 41.2275C135.647 41.5915 135.797 42.0706 135.797 42.6631L135.791 42.8876H133.059C133.085 43.2608 133.172 43.5458 133.315 43.7425C133.492 43.98 133.771 44.0988 134.154 44.0988C134.392 44.0988 134.603 44.0314 134.782 43.8954C134.961 43.7607 135.07 43.5881 135.109 43.3773H135.731C135.638 43.7887 135.452 44.1014 135.171 44.3179C134.892 44.5338 134.532 44.6426 134.092 44.6426L134.092 44.6429ZM126.594 44.5413V40.7937H126.89H127.192V41.3509L127.321 41.1818C127.603 40.8494 127.938 40.6816 128.33 40.6816C128.666 40.6816 128.933 40.7806 129.13 40.98L129.337 41.2834L129.438 41.1539C129.707 40.8396 130.029 40.6816 130.405 40.6816C130.798 40.6816 131.1 40.7871 131.314 41.0023C131.527 41.2162 131.633 41.5184 131.633 41.9106V44.5415H131.319H131.004V42.1258C131.004 41.8377 130.946 41.624 130.829 41.4763C130.713 41.3296 130.543 41.2547 130.319 41.2547C130.047 41.2547 129.83 41.3616 129.669 41.5756C129.509 41.7864 129.427 42.0757 129.427 42.4361V44.5421H129.113H128.799V41.9742C128.799 41.7405 128.747 41.5625 128.64 41.4412C128.534 41.317 128.38 41.2549 128.177 41.2549C127.898 41.2549 127.669 41.375 127.488 41.6125C127.313 41.8516 127.222 42.1591 127.222 42.5346L127.222 44.5418H126.909H126.594V44.5413ZM125.168 42.38C125.148 42.0329 125.064 41.7623 124.908 41.5668C124.739 41.3534 124.489 41.2462 124.162 41.2462C123.832 41.2462 123.566 41.3691 123.369 41.6158C123.212 41.8113 123.118 42.0642 123.087 42.38H125.168ZM124.119 44.6429C123.59 44.6429 123.175 44.4738 122.872 44.1386C122.57 43.802 122.419 43.3375 122.419 42.7437C122.419 42.1132 122.579 41.6115 122.899 41.2393C123.219 40.8673 123.649 40.6811 124.189 40.6811C124.68 40.6811 125.074 40.8632 125.375 41.2275C125.675 41.5915 125.826 42.0706 125.826 42.6631L125.817 42.8876H123.087C123.112 43.2608 123.197 43.5458 123.341 43.7425C123.519 43.98 123.798 44.0988 124.181 44.0988C124.42 44.0988 124.627 44.0314 124.808 43.8954C124.987 43.7607 125.096 43.5881 125.137 43.3773H125.759C125.664 43.7887 125.478 44.1014 125.199 44.3179C124.919 44.5338 124.559 44.6426 124.119 44.6426L124.119 44.6429ZM120.094 41.2542C119.742 41.2542 119.483 41.3678 119.323 41.5907C119.161 41.8162 119.08 42.1712 119.08 42.6593C119.08 43.1197 119.167 43.475 119.343 43.723C119.521 43.9721 119.77 44.0962 120.094 44.0962C120.399 44.0962 120.644 43.9803 120.83 43.7533C121.017 43.5237 121.109 43.2216 121.109 42.8455C121.109 42.3148 121.026 41.9167 120.856 41.6528C120.688 41.387 120.432 41.2542 120.094 41.2542ZM119.971 45.6007C120.332 45.6007 120.606 45.486 120.796 45.2605C120.984 45.031 121.079 44.7008 121.079 44.264L121.079 44.1414L121.076 44.1455C120.815 44.4754 120.478 44.6431 120.061 44.6431C119.559 44.6431 119.161 44.4541 118.866 44.0809C118.569 43.7046 118.422 43.2008 118.422 42.5621C118.422 42.0001 118.567 41.5461 118.858 41.2005C119.149 40.8545 119.531 40.6819 120 40.6819C120.452 40.6819 120.807 40.8771 121.071 41.2665L121.117 41.3337V40.794H121.707V44.2643C121.704 44.8976 121.562 45.3636 121.28 45.6684C120.998 45.9718 120.565 46.1234 119.981 46.1234C119.557 46.1234 119.22 46.0244 118.97 45.8292C118.721 45.6325 118.571 45.3488 118.52 44.9756H119.163C119.199 45.1761 119.29 45.329 119.43 45.4385C119.571 45.5465 119.751 45.6007 119.971 45.6007H119.971ZM116.894 43.0566V42.6506C116.777 42.707 116.647 42.7439 116.507 42.7665L115.929 42.8496C115.627 42.8907 115.406 42.9607 115.265 43.062C115.127 43.1595 115.057 43.2957 115.057 43.4642C115.057 43.6756 115.112 43.8367 115.228 43.9503C115.341 44.0637 115.503 44.1204 115.713 44.1204C116.043 44.1204 116.323 44.0308 116.552 43.8497C116.709 43.7243 116.811 43.582 116.862 43.4237L116.882 43.2795L116.894 43.0566H116.894ZM115.59 44.6429C115.222 44.6429 114.934 44.5454 114.721 44.3484C114.505 44.1517 114.397 43.8867 114.397 43.554C114.397 43.2177 114.499 42.9499 114.7 42.7519C114.902 42.5528 115.196 42.4284 115.582 42.38L116.439 42.273L116.638 42.2373L116.827 42.1109L116.894 41.8734V41.8405C116.894 41.6394 116.819 41.484 116.668 41.3693C116.517 41.256 116.304 41.2005 116.034 41.2005C115.776 41.2005 115.573 41.2595 115.427 41.3811C115.282 41.4999 115.194 41.6794 115.162 41.917H114.584C114.613 41.5066 114.759 41.198 115.016 40.992C115.274 40.7848 115.647 40.6819 116.128 40.6819C116.583 40.6819 116.928 40.7809 117.166 40.9789C117.402 41.1757 117.521 41.4632 117.521 41.8405L117.521 43.9003L117.578 44.0532L117.735 44.1111L117.818 44.1032L117.936 44.0832V44.5382L117.744 44.5921L117.572 44.6136C117.334 44.6136 117.162 44.5487 117.054 44.4182C116.985 44.331 116.935 44.2101 116.905 44.0501L116.744 44.2176C116.429 44.5 116.045 44.6426 115.59 44.6426L115.59 44.6429ZM110.609 44.5413V40.7937H110.906H111.206V41.3483L111.346 41.1608C111.618 40.8427 111.959 40.6816 112.369 40.6816C112.781 40.6816 113.1 40.7937 113.325 41.0166C113.548 41.2421 113.659 41.5589 113.659 41.9734L113.66 44.5413H113.346H113.031V42.1871C113.031 41.8577 112.968 41.6202 112.84 41.4748C112.714 41.3283 112.507 41.2544 112.223 41.2544C111.92 41.2544 111.68 41.3693 111.502 41.6004C111.324 41.8295 111.236 42.1412 111.236 42.5341L111.236 44.5413H110.924H110.609H110.609ZM108.9 43.0566V42.6506C108.785 42.707 108.654 42.7439 108.513 42.7665L107.935 42.8496C107.635 42.8907 107.412 42.9607 107.274 43.062C107.133 43.1595 107.063 43.2957 107.063 43.4642C107.063 43.6756 107.12 43.8367 107.234 43.9503C107.348 44.0637 107.51 44.1204 107.72 44.1204C108.052 44.1204 108.33 44.0308 108.558 43.8497C108.715 43.7243 108.82 43.582 108.87 43.4237L108.892 43.2795L108.901 43.0566H108.9ZM107.598 44.6429C107.232 44.6429 106.941 44.5454 106.727 44.3484C106.514 44.1517 106.406 43.8867 106.406 43.554C106.406 43.2177 106.506 42.9499 106.709 42.7519C106.909 42.5528 107.204 42.4284 107.59 42.38L108.446 42.273L108.645 42.2373L108.833 42.1109L108.901 41.8734V41.8405C108.901 41.6394 108.825 41.484 108.674 41.3693C108.523 41.256 108.312 41.2005 108.042 41.2005C107.782 41.2005 107.581 41.2595 107.433 41.3811C107.288 41.4999 107.2 41.6794 107.171 41.917H106.591C106.621 41.5066 106.766 41.198 107.026 40.992C107.284 40.7848 107.653 40.6819 108.135 40.6819C108.59 40.6819 108.935 40.7809 109.173 40.9789C109.412 41.1757 109.53 41.4632 109.53 41.8405L109.53 43.9003L109.587 44.0532L109.744 44.1111L109.826 44.1032L109.943 44.0832V44.5382L109.75 44.5921L109.578 44.6136C109.34 44.6136 109.17 44.5487 109.062 44.4182C108.991 44.331 108.941 44.2101 108.912 44.0501L108.751 44.2176C108.437 44.5 108.052 44.6426 107.598 44.6426L107.598 44.6429ZM101.367 44.5413H101.032H100.694V39.3924H101.193H101.692L103.163 43.7733H103.162L104.618 39.3924H105.117H105.618V44.5413H105.282H104.944V40.184H104.942L103.494 44.5413H103.157H102.823L101.37 40.1986H101.368V44.5413H101.367ZM97.4253 41.3162V44.5413H97.1102H96.7953V41.3162H96.2794V40.7937H96.7953V40.1566C96.7953 39.8795 96.8782 39.671 97.0403 39.5312C97.2036 39.3912 97.4471 39.3204 97.774 39.3204L98.0505 39.3309V39.8993L97.8016 39.8888C97.6816 39.8888 97.5879 39.9283 97.521 40.0063C97.4565 40.083 97.4248 40.1948 97.4248 40.3402L97.4253 40.7937H98.0505V41.3162H97.4253ZM94.1682 44.0991C94.5 44.0991 94.7634 43.9711 94.9587 43.7112C95.1546 43.4524 95.2521 43.1031 95.2521 42.6637C95.2521 42.224 95.1546 41.8759 94.9587 41.6145C94.7637 41.3545 94.5002 41.2241 94.1682 41.2241C93.8393 41.2241 93.5771 41.3547 93.382 41.6145C93.1859 41.8762 93.0899 42.2243 93.0899 42.6637C93.0899 43.1033 93.1857 43.4529 93.382 43.7112C93.5774 43.9713 93.839 44.0991 94.1682 44.0991ZM94.1682 44.6429C93.6521 44.6429 93.232 44.4607 92.9133 44.0962C92.5918 43.731 92.4325 43.2544 92.4325 42.6634C92.4328 42.0709 92.5918 41.5917 92.9133 41.2277C93.232 40.8635 93.6521 40.6814 94.1682 40.6814C94.6912 40.6814 95.1113 40.8635 95.4313 41.2277C95.75 41.5917 95.9095 42.0709 95.9095 42.6634C95.9095 43.2544 95.75 43.731 95.4313 44.0962C95.1113 44.4607 94.691 44.6429 94.1682 44.6429ZM89.0643 44.5413V39.3924H89.379H89.6938V44.5413H89.379H89.0643ZM86.5778 44.0991C86.9081 44.0991 87.1717 43.9711 87.3678 43.7112C87.5632 43.4524 87.663 43.1031 87.663 42.6637C87.663 42.224 87.5632 41.8759 87.3678 41.6145C87.1717 41.3545 86.9083 41.2241 86.5778 41.2241C86.2471 41.2241 85.9849 41.3547 85.7916 41.6145C85.5966 41.8762 85.499 42.2243 85.499 42.6637C85.4993 43.1033 85.5966 43.4529 85.7916 43.7112C85.9854 43.9713 86.2468 44.0991 86.5778 44.0991ZM86.5778 44.6429C86.0617 44.6429 85.6414 44.4607 85.3226 44.0962C85.0016 43.731 84.8409 43.2544 84.8409 42.6634C84.8409 42.0709 85.0011 41.5917 85.3226 41.2277C85.6416 40.8635 86.0617 40.6814 86.5778 40.6814C87.1018 40.6814 87.5207 40.8635 87.8407 41.2277C88.1596 41.5917 88.3186 42.0709 88.3186 42.6634C88.3189 43.2544 88.1591 43.731 87.8407 44.0962C87.5207 44.4607 87.1018 44.6429 86.5778 44.6429ZM82.5824 44.0991C82.9129 44.0991 83.1748 43.9711 83.3712 43.7112C83.5675 43.4524 83.6645 43.1031 83.6645 42.6637C83.665 42.224 83.5672 41.8759 83.3712 41.6145C83.1748 41.3545 82.9129 41.2241 82.5819 41.2241C82.2522 41.2241 81.9895 41.3547 81.7947 41.6145C81.5996 41.8762 81.5024 42.2243 81.5024 42.6637C81.5024 43.1033 81.5996 43.4529 81.7947 43.7112C81.9895 43.9713 82.2514 44.0991 82.5824 44.0991ZM82.5824 44.6429C82.065 44.6429 81.6457 44.4607 81.3257 44.0962C81.0047 43.731 80.8449 43.2544 80.8449 42.6634C80.8449 42.0709 81.0042 41.5917 81.3257 41.2277C81.6457 40.8635 82.0645 40.6814 82.5819 40.6814C83.1052 40.6814 83.5237 40.8635 83.8437 41.2277C84.1627 41.5917 84.3219 42.0709 84.3219 42.6634C84.3219 43.2544 84.1627 43.731 83.8437 44.0962C83.5237 44.4607 83.1049 44.6429 82.5824 44.6429ZM77.0633 44.5413V39.3924H77.3779H77.6915V41.3019L77.7993 41.1608C78.0722 40.8427 78.4142 40.6816 78.8238 40.6816C79.2347 40.6816 79.5547 40.7937 79.7787 41.0166C80.0012 41.2421 80.113 41.5589 80.113 41.9734L80.1136 44.5413H79.7994H79.4851V42.1319C79.4851 41.8205 79.4254 41.5976 79.3056 41.4604C79.1886 41.3229 78.9948 41.2542 78.7263 41.2542C78.4091 41.2542 78.1575 41.3691 77.9703 41.6002C77.7847 41.8292 77.6913 42.1409 77.6913 42.5339L77.6915 44.541H77.3779H77.0633V44.5413ZM76.4182 43.1926C76.3532 43.6648 76.186 44.0239 75.9185 44.2709C75.6505 44.5174 75.2931 44.6431 74.8479 44.6431C74.3515 44.6431 73.955 44.4646 73.6601 44.107C73.3654 43.7495 73.2161 43.2682 73.2161 42.6637C73.2161 42.0591 73.3687 41.5789 73.6757 41.2203C73.9813 40.8612 74.3935 40.6816 74.9109 40.6816C75.3601 40.6816 75.7209 40.8042 75.9881 41.0513C76.2554 41.298 76.3977 41.6369 76.4174 42.0686H75.8133C75.7879 41.7995 75.6932 41.592 75.534 41.4458C75.3724 41.2978 75.1584 41.2239 74.8901 41.2239C74.5742 41.2239 74.3239 41.3519 74.1447 41.6081C73.9644 41.8626 73.8736 42.2153 73.8736 42.6637C73.8736 43.1397 73.9568 43.4988 74.1252 43.7389C74.2924 43.9793 74.5425 44.0993 74.8732 44.0993C75.1169 44.0993 75.322 44.0213 75.4869 43.8633C75.6515 43.7048 75.7592 43.4817 75.8135 43.1928L76.4182 43.1926ZM71.8862 40.8848C71.8576 40.5616 71.7296 40.3097 71.5056 40.1343C71.2792 39.9588 70.9777 39.8703 70.5983 39.8703C70.2076 39.8703 69.9107 39.9457 69.7079 40.0986C69.5062 40.2487 69.4048 40.4718 69.4048 40.7622C69.4051 40.9615 69.4709 41.1108 69.6065 41.207C69.7425 41.306 70.0133 41.4022 70.4201 41.4986L71.3146 41.712C71.7941 41.8259 72.1363 41.9944 72.3417 42.2176C72.5475 42.4405 72.6501 42.756 72.6501 43.161C72.6501 43.6281 72.4735 43.9977 72.1207 44.2707C71.768 44.5446 71.2897 44.6808 70.6866 44.6808C70.0151 44.6808 69.4908 44.5228 69.1127 44.2086C68.7443 43.8969 68.561 43.4724 68.561 42.9325V42.8943H69.2C69.2121 43.268 69.3462 43.5566 69.6053 43.7584C69.8638 43.9616 70.2245 44.0634 70.6866 44.0634C71.1121 44.0634 71.4357 43.9893 71.6586 43.8415C71.8796 43.6964 71.9889 43.4801 71.9889 43.1964C71.9889 42.9484 71.9164 42.765 71.7718 42.6462C71.6272 42.5303 71.3356 42.4179 70.897 42.3125L70.0021 42.0999C69.5492 41.9919 69.2264 41.8428 69.0323 41.6515C68.8401 41.4604 68.7443 41.1964 68.7443 40.8571C68.7443 40.3646 68.9115 39.9745 69.2446 39.6856C69.5794 39.3981 70.0307 39.2529 70.5985 39.2529C71.1766 39.2529 71.6374 39.3981 71.9786 39.6866C72.3209 39.977 72.5027 40.3756 72.5262 40.8853L71.8865 40.8848H71.8862ZM64.3777 44.5413V40.7937H64.6752H64.9758V41.4347L65.1465 41.1618C65.3836 40.8427 65.6769 40.6816 66.0233 40.6816L66.2015 40.7116V41.3586L66.0737 41.3542C65.7328 41.3542 65.4691 41.456 65.2845 41.6607C65.0989 41.8639 65.007 42.1568 65.007 42.5339V44.541H64.6921H64.3775L64.3777 44.5413ZM62.8658 42.38C62.8461 42.0329 62.7593 41.7623 62.6065 41.5668C62.4365 41.3534 62.1877 41.2462 61.8584 41.2462C61.5297 41.2462 61.2645 41.3691 61.0669 41.6158C60.9102 41.8113 60.8152 42.0642 60.7838 42.38H62.8658ZM61.8167 44.6429C61.2886 44.6429 60.8734 44.4738 60.5705 44.1386C60.2674 43.802 60.1164 43.3375 60.1164 42.7437C60.1164 42.1132 60.2753 41.6115 60.5969 41.2393C60.9171 40.8673 61.3459 40.6811 61.8861 40.6811C62.3763 40.6811 62.7711 40.8632 63.0714 41.2275C63.3729 41.5915 63.5214 42.0706 63.5214 42.6631L63.515 42.8876H60.7838C60.8091 43.2608 60.8941 43.5458 61.0395 43.7425C61.2156 43.98 61.4947 44.0988 61.8782 44.0988C62.1165 44.0988 62.3256 44.0314 62.5061 43.8954C62.6853 43.7607 62.7946 43.5881 62.8341 43.3773H63.4556C63.3624 43.7887 63.1766 44.1014 62.896 44.3179C62.617 44.5338 62.2573 44.6426 61.8165 44.6426L61.8167 44.6429ZM58.702 39.3922H59.3448V40.1076H58.702V39.3922ZM58.7089 44.541V40.7935H59.025H59.3384V44.541H59.025H58.7089ZM54.6856 40.7935H55.0529H55.4206L56.4225 43.8613H56.4213L57.4591 40.7935H57.8024H58.1518L56.7569 44.541H56.4225H56.0844L54.6858 40.7935H54.6856ZM53.3871 43.0564V42.6503C53.2699 42.7068 53.1409 42.7437 52.9988 42.7663L52.422 42.8494C52.1205 42.8904 51.898 42.9604 51.7582 43.0618C51.62 43.1592 51.5491 43.2954 51.5491 43.464C51.5491 43.6753 51.6069 43.8364 51.7214 43.95C51.8335 44.0634 51.9966 44.1201 52.206 44.1201C52.5367 44.1201 52.816 44.0306 53.0449 43.8495C53.2005 43.7241 53.306 43.5817 53.3559 43.4234L53.3772 43.2793L53.3877 43.0564H53.3871ZM52.0836 44.6426C51.7175 44.6426 51.4275 44.5451 51.2145 44.3481C50.9999 44.1514 50.8914 43.8864 50.8914 43.5537C50.8917 43.2175 50.9912 42.9497 51.193 42.7516C51.3962 42.5526 51.6896 42.4282 52.0754 42.3797L52.933 42.2727L53.1322 42.2371L53.3203 42.1106L53.3874 41.8731V41.8403C53.3874 41.6392 53.3124 41.4837 53.1608 41.3691C53.0096 41.2557 52.7973 41.2003 52.526 41.2003C52.2679 41.2003 52.0667 41.2593 51.9205 41.3809C51.7741 41.4996 51.686 41.6792 51.6568 41.9167H51.0775C51.1067 41.5063 51.2526 41.1977 51.5109 40.9918C51.7695 40.7845 52.1389 40.6816 52.6222 40.6816C53.0764 40.6816 53.4217 40.7806 53.6585 40.9787C53.8976 41.1754 54.0154 41.463 54.0154 41.8403L54.0159 43.9L54.0737 44.0529L54.2294 44.1109L54.3123 44.1029L54.428 44.0829V44.5379L54.2371 44.5918L54.0643 44.6134C53.8272 44.6134 53.6559 44.5485 53.5482 44.4179C53.4788 44.3307 53.4284 44.2099 53.3982 44.0498L53.2379 44.2173C52.9228 44.4997 52.5383 44.6423 52.0841 44.6423L52.0836 44.6426ZM45.98 44.541L47.8035 41.969L46.0952 39.3919H46.5261H46.9554L48.2162 41.4014L49.5697 39.3919H49.9859H50.406L48.6069 41.9239L50.4798 44.5408H50.0543H49.6288L48.2183 42.4679L46.8225 44.5408H46.4027H45.98V44.541Z" fill="#9D9E9E"/>
<path fill-rule="evenodd" clip-rule="evenodd" d="M37.305 46.1206H37.638L38.2711 47.4767L38.9045 46.1206H39.2378L38.4211 47.7833V48.8319H38.1208V47.7833L37.3047 46.1206H37.305ZM35.5299 46.1203H37.2389V46.3933H36.5334V48.8316H36.2341V46.3933H35.5299V46.1203ZM34.8282 46.1201H35.1272V48.8313H34.8282V46.1201ZM33.8643 46.876C33.8643 46.5538 33.6744 46.393 33.2968 46.393H32.8767V47.3734H33.3467C33.692 47.3734 33.8641 47.2071 33.8643 46.8757V46.876ZM34.2936 48.8313H33.9383C33.9053 48.7087 33.8812 48.5979 33.8707 48.4989L33.8536 48.1955C33.8536 48.0041 33.8113 47.8643 33.7284 47.7774C33.6455 47.6886 33.532 47.6453 33.3887 47.6453H32.8767V48.8313H32.5761V46.1201H33.2873C33.6257 46.1201 33.8602 46.1847 33.9839 46.3112C34.1093 46.4407 34.1708 46.6162 34.1708 46.8447C34.1713 47.2207 33.9959 47.4367 33.6442 47.4924C33.8287 47.516 33.9526 47.5678 34.0182 47.6453C34.086 47.7217 34.1224 47.8353 34.1288 47.9872C34.1334 48.1229 34.1528 48.3181 34.1869 48.5738C34.2079 48.6954 34.2435 48.7587 34.2934 48.7667L34.2936 48.8313ZM31.0898 47.7048V47.4329H31.9799V48.859H31.7508V48.4209C31.6638 48.7405 31.4541 48.9014 31.1238 48.9014C30.8435 48.9014 30.6287 48.7947 30.4826 48.5823C30.3354 48.3683 30.2614 48.0108 30.2614 47.5096C30.2616 46.9935 30.3338 46.62 30.48 46.393C30.6264 46.1634 30.8499 46.05 31.1505 46.05C31.406 46.05 31.6046 46.1255 31.7454 46.2783C31.8867 46.4274 31.9564 46.6346 31.9564 46.8973H31.6479C31.6333 46.513 31.4648 46.3222 31.1423 46.3222C30.9398 46.3222 30.7936 46.4107 30.705 46.5849C30.6159 46.7603 30.5706 47.0715 30.5706 47.5214C30.5709 47.9464 30.6152 48.238 30.705 48.396C30.7936 48.5517 30.9357 48.63 31.129 48.63C31.3425 48.6295 31.4874 48.5438 31.5637 48.375C31.643 48.206 31.6799 47.9833 31.6799 47.7048H31.0901H31.0898ZM28.5272 48.8313V46.1201H29.8692V46.393H28.8262V47.289H29.8047V47.5606H28.8262V48.5592H29.8782V48.8311H28.5272V48.8313ZM26.5151 46.1198H28.2234V46.3927H27.5186V48.8311H27.2196V46.3927H26.5151V46.1198ZM24.5313 46.1196H25.0229L25.8843 48.5764V46.1196H26.1828V48.8308H25.692L24.8306 46.3635V48.8308H24.5313V46.1196ZM23.609 46.1193H23.9093V48.8306H23.609V46.1193ZM21.0054 47.131L21.2412 46.9099L21.3149 46.6618L21.2451 46.4469L21.0564 46.3607L20.8657 46.4469L20.7917 46.6472C20.7917 46.7726 20.8631 46.9335 21.0052 47.1312L21.0054 47.131ZM20.9028 47.4996C20.7656 47.5929 20.668 47.6896 20.6117 47.7871C20.5539 47.8833 20.5244 47.9944 20.5244 48.1221C20.5249 48.2845 20.5718 48.4084 20.6668 48.4956C20.762 48.5843 20.8933 48.6292 21.0605 48.6292C21.2502 48.6287 21.3935 48.5446 21.4911 48.3755L20.9028 47.4996ZM20.7748 47.2933C20.6022 47.0679 20.5152 46.8647 20.5152 46.6839C20.5155 46.5192 20.5641 46.3843 20.6616 46.2788C20.7605 46.1721 20.8867 46.1193 21.041 46.1193C21.2123 46.1193 21.3505 46.1706 21.4517 46.2722C21.5571 46.3738 21.6083 46.5043 21.6083 46.6616C21.6086 46.8975 21.4488 47.123 21.1288 47.3369L21.6493 48.097L21.7269 47.812L21.7535 47.5878H22.0184C22.0143 47.7104 21.9918 47.844 21.9549 47.99C21.9183 48.1354 21.8756 48.2542 21.8257 48.3412L22.1871 48.8437H21.8231L21.6495 48.5984C21.5034 48.8003 21.2978 48.9006 21.0331 48.9006C20.772 48.9006 20.5695 48.8321 20.4284 48.6923C20.2863 48.5535 20.2165 48.3573 20.2165 48.1036C20.2167 47.9323 20.2584 47.7884 20.3419 47.6681C20.4251 47.5496 20.5679 47.4254 20.775 47.2933H20.7748ZM17.5052 48.8306V46.1193H18.8471V46.3922H17.8054V47.2882H18.7829V47.5598H17.8054V48.5584H18.8566V48.8303H17.5052V48.8306ZM16.7502 47.8569H17.0589L17.0295 48.1785C17.0085 48.395 16.9309 48.5679 16.7965 48.7015C16.6621 48.8347 16.4881 48.9006 16.2751 48.9006C15.975 48.9006 15.759 48.7952 15.6243 48.5841C15.4915 48.373 15.4254 48.0616 15.4254 47.6524L15.4257 47.4519C15.4257 46.9781 15.494 46.6246 15.6335 46.3948C15.772 46.1642 15.9878 46.0493 16.2799 46.0493C16.5144 46.0493 16.7026 46.1231 16.8437 46.2706C16.987 46.4199 17.0582 46.6113 17.0582 46.8462L17.0584 46.9242H16.7497C16.7356 46.5218 16.572 46.3212 16.2615 46.3212C16.0943 46.3212 15.9651 46.4027 15.8729 46.5651C15.7797 46.73 15.7331 47.0653 15.7331 47.5745C15.7336 47.9243 15.7754 48.187 15.8583 48.365C15.9428 48.5405 16.0744 48.6292 16.2574 48.6292C16.5326 48.6287 16.6893 48.4417 16.7272 48.067L16.7497 47.8571L16.7502 47.8569ZM13.3068 46.1188H13.798L14.6587 48.5756V46.1188H14.9592V48.8301H14.468L13.6068 46.3627V48.8301H13.3068V46.1188ZM11.4933 48.8301V46.1188H12.8334V46.3917H11.7907V47.2877H12.7689V47.5593H11.7907V48.5579H12.8429V48.8298H11.4933V48.8301ZM9.72301 46.1185H10.022V48.5579H11.1205V48.8298H9.72301V46.1185ZM7.9177 46.1183H8.21773V48.5576H9.31751V48.8295H7.9177V46.1183ZM6.08039 48.8295V46.1183H7.42362V46.3912H6.38093V47.2872H7.35783V47.5588H6.38093V48.5574H7.43309V48.8293H6.08039V48.8295ZM5.3257 47.8558H5.63418L5.60602 48.1775C5.584 48.394 5.50592 48.5669 5.37152 48.7005C5.23738 48.8336 5.06355 48.8996 4.85005 48.8996C4.55027 48.8996 4.33395 48.7941 4.20109 48.583C4.06797 48.3719 4.0009 48.0605 4.0009 47.6514V47.4508C4.0009 46.9771 4.07078 46.6236 4.20851 46.3938C4.34726 46.1632 4.56282 46.0482 4.85517 46.0482C5.08992 46.0482 5.27808 46.1221 5.41862 46.2696C5.5625 46.4189 5.63315 46.6103 5.63315 46.8452L5.63367 46.9232H5.32518C5.31085 46.5207 5.14752 46.3201 4.83648 46.3201C4.67085 46.3201 4.54003 46.4017 4.44813 46.5641C4.3552 46.729 4.30835 47.0643 4.30835 47.5734C4.30861 47.9233 4.34931 48.186 4.43379 48.364C4.51827 48.5394 4.65088 48.6282 4.83392 48.6282C5.10784 48.6277 5.26477 48.4407 5.30394 48.0659L5.32518 47.8561L5.3257 47.8558ZM1.86483 48.8295L2.63002 47.4413L1.88736 46.118H2.24422L2.80538 47.1771H2.8064L3.36909 46.118H3.72595L2.98381 47.4413L3.74848 48.8295H3.3824L2.80666 47.6963L2.22118 48.8295H1.86534H1.86483ZM0.264832 48.8295V46.1183H1.60678V46.3912H0.56384V47.2872H1.54227V47.5588H0.56384V48.5574H1.61574V48.8293H0.264832V48.8295Z" fill="#1B4E9B"/>
<path fill-rule="evenodd" clip-rule="evenodd" d="M22.1948 39.4904C22.1948 39.6856 22.2327 39.8318 22.308 39.9295C22.3845 40.027 22.4949 40.0763 22.6449 40.0763C22.936 40.0763 23.0821 39.8767 23.0821 39.4745C23.0824 39.0415 22.9311 38.824 22.6293 38.824C22.3382 38.824 22.1948 39.0456 22.1948 39.4907V39.4904ZM21.9419 40.7068H22.2593C22.2593 40.9656 22.383 41.0933 22.6293 41.0933C22.7888 41.0933 22.9086 41.0115 22.9849 40.8481C23.0614 40.6842 23.1062 40.4007 23.1167 39.998C23.0115 40.2356 22.8374 40.353 22.5939 40.353C22.3623 40.353 22.1841 40.2738 22.0617 40.1129C21.9396 39.9519 21.8774 39.7538 21.8774 39.5204C21.8777 39.2367 21.9419 39.0018 22.0737 38.8199C22.2056 38.6378 22.3858 38.5467 22.6177 38.5467C22.8958 38.5467 23.0985 38.6442 23.2263 38.8409C23.3553 39.0349 23.4185 39.3593 23.4185 39.8151C23.4188 40.3784 23.3553 40.7794 23.2247 41.0159C23.096 41.2534 22.885 41.3706 22.5886 41.3706C22.3884 41.3706 22.2317 41.3098 22.1188 41.1869C22.0067 41.0643 21.9473 40.9048 21.9424 40.7068H21.9419ZM20.2234 40.3453H20.998V39.0077L20.2234 40.3453ZM19.9797 40.3387L21.0224 38.5467H21.3042V40.3453H21.5533V40.6224H21.3042V41.3147H20.9978V40.6224H19.9794V40.3387H19.9797ZM18.5074 39.4904C18.5074 39.6856 18.5453 39.8318 18.6206 39.9295C18.6971 40.027 18.809 40.0763 18.9575 40.0763C19.249 40.0763 19.395 39.8767 19.395 39.4745C19.395 39.0415 19.2447 38.824 18.9418 38.824C18.6523 38.824 18.5074 39.0456 18.5074 39.4907V39.4904ZM18.2545 40.7068H18.5719C18.5719 40.9656 18.6956 41.0933 18.9418 41.0933C19.1029 41.0933 19.2211 41.0115 19.299 40.8481C19.3755 40.6842 19.4188 40.4007 19.4293 39.998C19.3253 40.2356 19.1515 40.353 18.9065 40.353C18.6764 40.353 18.4982 40.2738 18.3745 40.1129C18.2537 39.9519 18.1902 39.7538 18.1902 39.5204C18.1902 39.2367 18.256 39.0018 18.3879 38.8199C18.5184 38.6378 18.6989 38.5467 18.9303 38.5467C19.2083 38.5467 19.4111 38.6442 19.5404 38.8409C19.6684 39.0349 19.7326 39.3593 19.7326 39.8151C19.7326 40.3784 19.6679 40.7794 19.5376 41.0159C19.4085 41.2534 19.1976 41.3706 18.9027 41.3706C18.7015 41.3706 18.5448 41.3098 18.4327 41.1869C18.3198 41.0643 18.2604 40.9048 18.255 40.7068H18.2545ZM16.4766 39.059C16.7111 39.059 16.8729 39.0207 16.9586 38.9441C17.0459 38.8661 17.1009 38.7342 17.1219 38.547H17.3603V41.3149H17.0521V39.2962H16.4766V39.059Z" fill="#FEFEFE"/>
<path fill-rule="evenodd" clip-rule="evenodd" d="M140.419 54.3082C140.079 54.3082 139.831 54.4162 139.673 54.6343C139.517 54.8502 139.439 55.195 139.439 55.6675C139.439 56.1123 139.522 56.4539 139.691 56.6953C139.861 56.9354 140.104 57.057 140.419 57.057C140.71 57.057 140.947 56.9464 141.127 56.723C141.306 56.5029 141.395 56.21 141.395 55.8457C141.396 55.3533 141.311 54.9749 141.141 54.7081C140.973 54.4419 140.731 54.3088 140.419 54.3088V54.3082ZM140.383 57.5738C139.901 57.5738 139.518 57.3932 139.232 57.0341C138.948 56.6725 138.804 56.1859 138.804 55.5723C138.804 55.0313 138.942 54.5932 139.219 54.2608C139.495 53.9284 139.854 53.7606 140.298 53.7606C140.74 53.7603 141.09 53.9491 141.348 54.3242L141.395 54.3926V52.5217H141.699H142V57.4779H141.721H141.439V56.9854L141.361 57.0965C141.114 57.4158 140.787 57.5741 140.383 57.5741V57.5738ZM136.682 57.0526C137.001 57.0526 137.255 56.9272 137.442 56.6781C137.632 56.4285 137.725 56.092 137.725 55.6698C137.725 55.2476 137.632 54.9113 137.442 54.6607C137.255 54.4096 137.001 54.2844 136.682 54.2844C136.365 54.2844 136.112 54.4096 135.925 54.6607C135.737 54.9113 135.643 55.2476 135.643 55.6698C135.643 56.092 135.737 56.4285 135.925 56.6781C136.112 56.9272 136.365 57.0526 136.682 57.0526ZM136.682 57.5738C136.185 57.5738 135.782 57.3997 135.473 57.0488C135.165 56.6976 135.01 56.2387 135.01 55.6698C135.01 55.0988 135.165 54.6381 135.473 54.287C135.782 53.9361 136.184 53.7606 136.682 53.7606C137.187 53.7603 137.59 53.9361 137.898 54.287C138.203 54.6376 138.357 55.0985 138.357 55.6698C138.357 56.2385 138.203 56.6976 137.898 57.0488C137.589 57.3997 137.187 57.5738 136.682 57.5738ZM132.888 57.0526C133.207 57.0526 133.461 56.9272 133.649 56.6781C133.836 56.4285 133.931 56.092 133.931 55.6698C133.931 55.2476 133.836 54.9113 133.649 54.6607C133.461 54.4096 133.207 54.2844 132.888 54.2844C132.571 54.2844 132.318 54.4096 132.13 54.6607C131.944 54.9113 131.85 55.2476 131.85 55.6698C131.85 56.092 131.944 56.4285 132.13 56.6781C132.318 56.9272 132.571 57.0526 132.888 57.0526ZM132.888 57.5738C132.389 57.5738 131.987 57.3997 131.679 57.0488C131.37 56.6976 131.217 56.2387 131.217 55.6698C131.217 55.0988 131.37 54.6381 131.679 54.287C131.987 53.9361 132.389 53.7606 132.888 53.7606C133.392 53.7603 133.796 53.9361 134.104 54.287C134.41 54.6376 134.563 55.0985 134.563 55.6698C134.564 56.2385 134.41 56.6976 134.104 57.0488C133.796 57.3997 133.391 57.5738 132.888 57.5738ZM129.064 54.3136C128.726 54.3136 128.478 54.4216 128.324 54.6368C128.166 54.8531 128.088 55.1965 128.088 55.6662C128.089 56.1097 128.173 56.4514 128.342 56.6899C128.513 56.929 128.752 57.049 129.064 57.049C129.358 57.049 129.595 56.9379 129.774 56.7194C129.954 56.4975 130.043 56.2074 130.043 55.8457C130.043 55.3353 129.962 54.9526 129.8 54.6966C129.637 54.4419 129.392 54.3139 129.064 54.3139L129.064 54.3136ZM128.947 58.4975C129.295 58.4975 129.558 58.388 129.741 58.1692C129.922 57.9501 130.014 57.6321 130.014 57.2124V57.0924L130.01 57.0965C129.761 57.4158 129.436 57.5741 129.034 57.5741C128.551 57.5741 128.167 57.3935 127.883 57.0344C127.598 56.6727 127.454 56.1861 127.454 55.5726C127.455 55.0316 127.596 54.5935 127.876 54.261C128.157 53.9286 128.522 53.7609 128.976 53.7609C129.411 53.7606 129.753 53.9494 130.006 54.3244L130.05 54.389V53.8704H130.618V57.2116C130.615 57.8198 130.479 58.2697 130.208 58.5627C129.937 58.8543 129.52 59.0008 128.957 59.0008C128.548 59.0008 128.224 58.9059 127.984 58.7184C127.744 58.5283 127.599 58.2554 127.549 57.8952H128.168C128.204 58.0894 128.289 58.2369 128.425 58.3423C128.562 58.4467 128.734 58.4978 128.947 58.4978L128.947 58.4975ZM123.955 57.4776V53.8701H124.241H124.53V54.4865L124.693 54.2239C124.923 53.915 125.204 53.7609 125.54 53.7609L125.711 53.7911V54.4124L125.586 54.4098C125.258 54.4098 125.006 54.5063 124.828 54.7043C124.649 54.9005 124.559 55.1819 124.559 55.5461V57.4776H124.258H123.955ZM122.553 55.3969C122.533 55.0619 122.451 54.8018 122.302 54.6143C122.14 54.4085 121.899 54.3057 121.583 54.3057C121.266 54.3054 121.01 54.4232 120.819 54.6617C120.669 54.8492 120.578 55.0934 120.548 55.3969H122.553ZM121.544 57.5738C121.033 57.5738 120.634 57.4127 120.342 57.0885C120.049 56.7648 119.905 56.3175 119.905 55.7478C119.905 55.1406 120.058 54.6576 120.367 54.299C120.676 53.9414 121.089 53.7606 121.609 53.7606C122.081 53.7603 122.46 53.9361 122.751 54.287C123.039 54.6376 123.184 55.0985 123.184 55.6698L123.178 55.8863H120.548C120.572 56.2449 120.654 56.5193 120.793 56.7084C120.964 56.9364 121.231 57.0523 121.601 57.0523C121.832 57.0523 122.032 56.9864 122.206 56.8559C122.377 56.7263 122.483 56.5604 122.522 56.357H123.119C123.03 56.7525 122.851 57.0547 122.581 57.2622C122.313 57.4707 121.966 57.5736 121.544 57.5736L121.544 57.5738ZM119.522 57.4738C119.317 57.5051 119.167 57.5212 119.072 57.5212C118.808 57.5212 118.621 57.4617 118.512 57.3458C118.403 57.2281 118.349 57.0275 118.349 56.7415V54.3647H117.85V53.8699H118.349V52.8577H118.955V53.8699H119.522V54.3647H118.955V56.7415L119.049 56.9341L119.308 57.0052H119.522V57.4738ZM116.609 56.0474V55.657C116.497 55.7111 116.373 55.7478 116.236 55.7675L115.681 55.8496C115.391 55.8891 115.176 55.9576 115.043 56.0527C114.909 56.1492 114.84 56.2787 114.84 56.4421C114.84 56.644 114.896 56.7997 115.005 56.9092C115.114 57.0187 115.271 57.0726 115.474 57.0726C115.791 57.0726 116.06 56.9851 116.281 56.8125C116.43 56.6912 116.531 56.554 116.58 56.4011L116.599 56.2623L116.609 56.0474H116.609ZM115.354 57.5738C115.003 57.5738 114.723 57.4802 114.518 57.2917C114.311 57.1026 114.208 56.8469 114.208 56.5265C114.208 56.2031 114.304 55.946 114.499 55.7544C114.693 55.5628 114.976 55.4428 115.349 55.3969L116.173 55.294L116.364 55.2586L116.546 55.137L116.609 54.909V54.8785C116.609 54.6845 116.538 54.5342 116.392 54.4247C116.247 54.3152 116.043 54.2613 115.781 54.2613C115.533 54.261 115.338 54.3177 115.197 54.4352C115.058 54.5517 114.972 54.7228 114.943 54.9526H114.386C114.415 54.5568 114.554 54.2587 114.802 54.0605C115.051 53.8614 115.409 53.7611 115.873 53.7611C116.31 53.7609 116.643 53.8573 116.872 54.0474C117.1 54.2375 117.214 54.5145 117.214 54.8787L117.215 56.8605L117.27 57.0082L117.42 57.0626L117.499 57.0572L117.613 57.0359V57.4743L117.428 57.5282L117.262 57.5495C117.033 57.5495 116.869 57.4858 116.764 57.3607C116.697 57.276 116.648 57.1588 116.619 57.0057L116.465 57.1667C116.162 57.4397 115.792 57.5743 115.354 57.5743L115.354 57.5738ZM113.086 55.3969C113.07 55.0619 112.986 54.8018 112.839 54.6143C112.674 54.4085 112.435 54.3057 112.119 54.3057C111.801 54.3054 111.545 54.4232 111.356 54.6617C111.206 54.8492 111.113 55.0934 111.083 55.3969H113.086ZM112.078 57.5738C111.569 57.5738 111.17 57.4127 110.876 57.0885C110.586 56.7648 110.441 56.3175 110.441 55.7478C110.441 55.1406 110.594 54.6576 110.903 54.299C111.21 53.9414 111.626 53.7606 112.145 53.7606C112.616 53.7603 112.997 53.9361 113.286 54.287C113.575 54.6376 113.718 55.0985 113.718 55.6698L113.713 55.8863H111.083C111.109 56.2449 111.19 56.5193 111.328 56.7084C111.498 56.9364 111.768 57.0523 112.136 57.0523C112.367 57.0523 112.568 56.9864 112.741 56.8559C112.914 56.7263 113.019 56.5604 113.057 56.357H113.655C113.566 56.7525 113.386 57.0547 113.116 57.2622C112.849 57.4707 112.501 57.5736 112.078 57.5736V57.5738ZM108.439 57.4776V53.8701H108.726H109.014V54.4865L109.179 54.2239C109.407 53.915 109.691 53.7609 110.024 53.7609L110.194 53.7911V54.4124L110.072 54.4098C109.743 54.4098 109.49 54.5063 109.313 54.7043C109.136 54.9005 109.045 55.1819 109.045 55.5461V57.4776H108.742H108.439ZM105.998 54.3136C105.66 54.3136 105.411 54.4216 105.256 54.6368C105.1 54.8531 105.022 55.1965 105.022 55.6662C105.022 56.1097 105.107 56.4514 105.277 56.6899C105.446 56.929 105.685 57.049 105.998 57.049C106.292 57.049 106.528 56.9379 106.709 56.7194C106.888 56.4975 106.977 56.2074 106.977 55.8457C106.977 55.3353 106.896 54.9526 106.734 54.6966C106.572 54.4419 106.325 54.3139 105.998 54.3139V54.3136ZM105.88 58.4975C106.228 58.4975 106.491 58.388 106.674 58.1692C106.856 57.9501 106.946 57.6321 106.946 57.2124L106.947 57.0924L106.943 57.0965C106.694 57.4158 106.37 57.5741 105.968 57.5741C105.485 57.5741 105.102 57.3935 104.816 57.0344C104.532 56.6727 104.389 56.1861 104.389 55.5726C104.389 55.0316 104.529 54.5935 104.809 54.261C105.091 53.9286 105.456 53.7609 105.91 53.7609C106.343 53.7606 106.686 53.9494 106.939 54.3244L106.984 54.389V53.8704H107.552V57.2116C107.55 57.8198 107.412 58.2697 107.14 58.5627C106.87 58.8543 106.452 59.0008 105.89 59.0008C105.481 59.0008 105.157 58.9059 104.917 58.7184C104.678 58.5283 104.532 58.2554 104.483 57.8952H105.102C105.138 58.0894 105.224 58.2369 105.359 58.3423C105.494 58.4467 105.668 58.4978 105.879 58.4978L105.88 58.4975ZM101.672 55.3969C101.654 55.0619 101.571 54.8018 101.422 54.6143C101.261 54.4085 101.02 54.3057 100.703 54.3057C100.386 54.3054 100.131 54.4232 99.9395 54.6617C99.791 54.8492 99.6984 55.0934 99.6682 55.3969H101.672ZM100.664 57.5738C100.155 57.5738 99.7552 57.4127 99.4628 57.0885C99.171 56.7648 99.0256 56.3175 99.0256 55.7478C99.0256 55.1406 99.1782 54.6576 99.4892 54.299C99.7962 53.9414 100.211 53.7606 100.731 53.7606C101.203 53.7603 101.582 53.9361 101.871 54.287C102.16 54.6376 102.305 55.0985 102.305 55.6698L102.297 55.8863H99.6684C99.6922 56.2449 99.7762 56.5193 99.9132 56.7084C100.083 56.9364 100.353 57.0523 100.722 57.0523C100.952 57.0523 101.152 56.9864 101.326 56.8559C101.499 56.7263 101.605 56.5604 101.642 56.357H102.24C102.151 56.7525 101.971 57.0547 101.703 57.2622C101.435 57.4707 101.085 57.5736 100.664 57.5736V57.5738ZM95.4045 57.4776V52.5214H95.7076H96.0089V54.3583L96.1131 54.2221C96.3752 53.9148 96.7039 53.7606 97.1002 53.7606C97.4965 53.7603 97.8035 53.8699 98.0182 54.0851C98.2328 54.3016 98.3426 54.6076 98.3426 55.0049V57.4776H98.0397H97.7369V55.1568C97.7369 54.8585 97.6788 54.6435 97.5641 54.5101C97.4499 54.3793 97.2651 54.3136 97.0055 54.3136C96.6991 54.3136 96.4579 54.4242 96.2797 54.6461C96.0985 54.8674 96.0089 55.167 96.0089 55.5459V57.4774H95.7076H95.4045V57.4776ZM94.8487 57.4738C94.6416 57.5051 94.4944 57.5212 94.3981 57.5212C94.1337 57.5212 93.9481 57.4617 93.8385 57.3458C93.7292 57.2281 93.6749 57.0275 93.6749 56.7415L93.6754 54.3647H93.1773V53.8699H93.6754V52.8577H94.2814V53.8699H94.8487V54.3647H94.2814V56.7415L94.3761 56.9341L94.6339 57.0052H94.8487V57.4738ZM89.7156 57.4776V53.8701H90.0026H90.2911V54.4865L90.4557 54.2239C90.6849 53.915 90.9647 53.7609 91.3008 53.7609L91.4721 53.7911V54.4124L91.3471 54.4098C91.0194 54.4098 90.7675 54.5063 90.5883 54.7043C90.4107 54.9005 90.3201 55.1819 90.3201 55.5461V57.4776H90.0187H89.7156ZM87.3041 57.0526C87.6231 57.0526 87.877 56.9272 88.0652 56.6781C88.2523 56.4285 88.3486 56.092 88.3486 55.6698C88.3486 55.2476 88.2523 54.9113 88.0652 54.6607C87.877 54.4096 87.6228 54.2844 87.3041 54.2844C86.9872 54.2844 86.7343 54.4096 86.5456 54.6607C86.359 54.9113 86.2655 55.2476 86.2655 55.6698C86.2655 56.092 86.3587 56.4285 86.5456 56.6781C86.7343 56.9272 86.9869 57.0526 87.3041 57.0526ZM87.3041 57.5738C86.8065 57.5738 86.4033 57.3997 86.0953 57.0488C85.7858 56.6976 85.633 56.2387 85.633 55.6698C85.633 55.0988 85.7858 54.6381 86.0953 54.287C86.4038 53.9361 86.8065 53.7606 87.3041 53.7606C87.8074 53.7603 88.2116 53.9361 88.5196 54.287C88.8253 54.6376 88.9804 55.0985 88.9804 55.6698C88.9809 56.2385 88.8253 56.6976 88.5196 57.0488C88.2114 57.3997 87.8072 57.5738 87.3041 57.5738ZM82.157 57.4776V52.5214H85.5818V52.8185V53.1152H82.8267V54.6289H85.2382V54.9244V55.2214H82.8267V57.4776H82.4936H82.157Z" fill="#1B4E9B"/>
<path fill-rule="evenodd" clip-rule="evenodd" d="M46.3845 48.1885H141.922V48.77H46.3845V48.1885Z" fill="#9D9E9E"/>
<path fill-rule="evenodd" clip-rule="evenodd" d="M135.247 10.8097L135.202 0.259338L141.915 5.53567L135.247 10.8097Z" fill="#BCCF17"/>
<path fill-rule="evenodd" clip-rule="evenodd" d="M100.643 29.8396H88.2459V0.524579H81.4786L81.5416 35.4856H100.635L100.643 29.8396ZM76.3624 0.524579H68.3087L61.3923 11.9104L54.573 0.524579H46.519L57.6864 18.2055L45.9189 35.4856H53.9729L61.1447 23.8505L68.1558 35.549H76.0601L64.8509 17.7028L76.3629 0.524323L76.3624 0.524579Z" fill="#9D9E9E"/>
<path fill-rule="evenodd" clip-rule="evenodd" d="M121.801 11.571C121.794 12.7943 121.558 13.8075 121.106 14.6257C120.652 15.4373 120.038 16.076 119.27 16.5457C118.495 17.0153 117.62 17.3557 116.642 17.5509C115.671 17.7531 114.652 17.8505 113.602 17.8428H111.466V5.78679C112.058 5.71266 112.672 5.6493 113.31 5.60826C113.949 5.56748 114.564 5.54388 115.154 5.54388C115.915 5.53439 116.69 5.63237 117.46 5.82578C118.235 6.01996 118.954 6.34469 119.609 6.8064C120.257 7.26016 120.79 7.87655 121.186 8.66274C121.583 9.43995 121.794 10.4116 121.801 11.571ZM129.903 35.4892L122.335 21.4883C123.653 20.9209 124.786 20.1927 125.739 19.2834C126.702 18.3769 127.438 17.2831 127.954 15.9952C128.473 14.7153 128.731 13.2229 128.739 11.522C128.723 9.47278 128.368 7.71392 127.664 6.25568C126.96 4.79693 125.981 3.60675 124.745 2.68255C123.5 1.75939 122.067 1.07836 120.45 0.649486C118.825 0.211374 117.095 -0.00768239 115.251 1.27938e-05C114.297 1.27938e-05 113.318 0.0251504 112.307 0.0741431C111.305 0.122879 110.327 0.179567 109.381 0.252158C108.434 0.332701 107.561 0.405036 106.777 0.49507C105.992 0.575613 105.338 0.657182 104.82 0.729773L104.821 35.4892H111.467V23.2379H113.165C113.651 23.2379 114.135 23.2205 114.613 23.1971C115.083 23.172 115.542 23.1402 115.979 23.0915L122.53 35.4892H129.903H129.903Z" fill="#9D9E9E"/>
<path fill-rule="evenodd" clip-rule="evenodd" d="M141.903 35.4271V7.51334L135.231 12.843V35.4271H141.903Z" fill="#9D9E9E"/>
</g>
<defs>
<clipPath id="clip0_42_15">
<rect width="142" height="59" fill="white"/>
</clipPath>
</defs>
</svg>
