<svg width="18" height="18" viewBox="0 0 18 18" fill="none" xmlns="http://www.w3.org/2000/svg">
<path d="M13.2019 10.809C13.021 10.7191 11.8455 10.1798 11.6647 10.0899C11.4838 10 11.303 10 11.1221 10.1798C10.9413 10.3596 10.5796 10.8989 10.3987 11.0787C10.3083 11.2584 10.1275 11.2584 9.94661 11.1685C9.31365 10.8989 8.68069 10.5393 8.13814 10.0899C7.68601 9.64046 7.2339 9.10113 6.87221 8.5618C6.78178 8.38202 6.87219 8.20226 6.96263 8.11235C7.05305 8.02247 7.14347 7.84269 7.32432 7.75281C7.41474 7.66293 7.50518 7.48314 7.50518 7.39326C7.59559 7.30338 7.59559 7.1236 7.50518 7.03372C7.41474 6.94381 6.96263 5.86518 6.78178 5.41573C6.69136 4.78652 6.5105 4.78652 6.32967 4.78652C6.23923 4.78652 6.0584 4.78652 5.87754 4.78652C5.69669 4.78652 5.42543 4.9663 5.335 5.05618C4.79245 5.59551 4.52118 6.22472 4.52118 6.94381C4.61162 7.75281 4.88289 8.5618 5.42543 9.28089C6.42009 10.7191 7.68601 11.8876 9.22323 12.6068C9.67534 12.7865 10.037 12.9663 10.4892 13.0562C10.9413 13.236 11.3934 13.236 11.9359 13.1461C12.5689 13.0562 13.1114 12.6068 13.4731 12.0674C13.654 11.7079 13.654 11.3483 13.5636 10.9888C13.5636 10.9888 13.3827 10.8989 13.2019 10.809ZM15.4625 2.62922C11.9359 -0.876407 6.23923 -0.876407 2.71271 2.62922C-0.180848 5.50561 -0.72339 9.91012 1.26593 13.4157L0 18L4.79245 16.7416C6.14881 17.4607 7.59559 17.8202 9.04238 17.8202C14.0157 17.8202 17.9943 13.8652 17.9943 8.92135C18.0848 6.58427 17.0901 4.33707 15.4625 2.62922ZM13.021 15.2135C11.8455 15.9326 10.4892 16.382 9.04238 16.382C7.68601 16.382 6.42009 16.0225 5.24458 15.3933L4.97331 15.2135L2.17016 15.9326L2.89356 13.236L2.71271 12.9663C0.542543 9.3708 1.62763 4.8764 5.15416 2.62922C8.68069 0.38202 13.2019 1.55056 15.372 4.9663C17.5422 8.47192 16.5476 13.0562 13.021 15.2135Z" fill="#2DCA06"/>
</svg>
